<svg xmlns="http://www.w3.org/2000/svg" viewBox="-15 -25 45 45">
  <defs><style>
    .breathe { animation: kf-breathe 3.6s infinite ease-in-out; }
    @keyframes kf-breathe { 0%,100% { transform: scale(1,1); } 50% { transform: scale(1.015,0.985); } }
    .blink { animation: kf-blink 4.2s infinite ease-in-out; }
    @keyframes kf-blink { 0%,92%,100% { transform: scaleY(1); } 96% { transform: scaleY(0.08); } }
    .badge-pulse { animation: kf-badge 2.6s infinite ease-in-out; }
    @keyframes kf-badge { 0%,100% { opacity: 1; } 50% { opacity: 0.8; } }

    .bpop { animation: kf-bpop 13.5s infinite; }
    @keyframes kf-bpop { 0%,2% { transform: scale(0); } 4% { transform: scale(1.08); } 5.5% { transform: scale(1); } 88% { transform: scale(1); } 92%,100% { transform: scale(0); } }
    .w1 { animation: kf-w1 13.5s infinite; }
    .w2 { animation: kf-w2 13.5s infinite; }
    .w3 { animation: kf-w3 13.5s infinite; }
    @keyframes kf-w1 { 0%,8% { opacity: 0; } 9%,90% { opacity: 1; } 91%,100% { opacity: 0; } }
    @keyframes kf-w2 { 0%,14% { opacity: 0; } 15%,90% { opacity: 1; } 91%,100% { opacity: 0; } }
    @keyframes kf-w3 { 0%,22% { opacity: 0; } 23%,90% { opacity: 1; } 91%,100% { opacity: 0; } }
    .tcur { animation: kf-tcur 0.8s infinite; }
    @keyframes kf-tcur { 0%,49% { opacity: 1; } 50%,100% { opacity: 0; } }
    .present-arm { animation: kf-parm 13.5s infinite ease-in-out; }
    @keyframes kf-parm { 0%,3% { transform: rotate(14deg); } 8%,88% { transform: rotate(0deg); } 94%,100% { transform: rotate(14deg); } }
  </style></defs>

  <ellipse id="mdm_shadow" cx="7.5" cy="15.3" rx="6.2" ry="1.3" fill="#0f172a" opacity="0.16"/>
  <g id="mdm_legs_group" fill="#0f172a"><rect x="3.4" y="10" width="2.6" height="4.2" rx="1"/><rect x="9" y="10" width="2.6" height="4.2" rx="1"/></g>
  <g id="body-js"><g class="breathe" style="transform-origin:7.5px 6px">
    <rect id="mdm_body" x="2" y="2" width="11" height="8.4" rx="1.6" fill="#ffffff" stroke="#0f172a" stroke-width="0.4"/>
    <path id="mdm_tie" d="M7 2.4 L8.3 2.4 L9 5 L7.5 9.6 L6 5 Z" fill="#1d4ed8"/>
    <rect x="10" y="3.4" width="2" height="2.4" rx="0.3" fill="#dfe9fb" stroke="#0f172a" stroke-width="0.25"/>
    <rect x="10.7" y="3" width="0.55" height="1.2" rx="0.2" fill="#dc2626"/></g>
  </g>

    <rect id="mdm_head_document" x="1" y="-9" width="13" height="11" rx="2.4" fill="#ffffff" stroke="#0f172a" stroke-width="0.4"/>
    <path id="mdm_corner_fold" d="M11.6 -9 L14 -9 L14 -6.6 Z" fill="#dfe9fb" stroke="#0f172a" stroke-width="0.3"/>
    <g class="badge-pulse">
      <rect id="mdm_badge" x="2.1" y="-8.1" width="3.6" height="3.6" rx="0.6" fill="#1d4ed8"/>
      <path d="M2.9 -5.3 V-7.4 L3.9 -6.1 L4.9 -7.4 V-5.3" stroke="#ffffff" stroke-width="0.5" fill="none" stroke-linecap="round" stroke-linejoin="round"/>
    </g>
    <g id="mdm_brows_group"><path d="M3.4 -7.4 q1.6 -0.6 3 0" stroke="#0f172a" stroke-width="0.6" fill="none" stroke-linecap="round"/>
         <path d="M8.6 -7.4 q1.6 -0.6 3 0" stroke="#0f172a" stroke-width="0.6" fill="none" stroke-linecap="round"/></g>
    <g id="eyes-js"><g class="blink" style="transform-origin:7.5px -3.5px"><g id="mdm_eyes_group">
    <ellipse cx="5" cy="-3.8" rx="1.1" ry="1.3" fill="#ffffff" stroke="#0f172a" stroke-width="0.35"/>
    <ellipse cx="10.5" cy="-3.8" rx="1.1" ry="1.3" fill="#ffffff" stroke="#0f172a" stroke-width="0.35"/><circle cx="5" cy="-3.8" r="0.5" fill="#0f172a"/><circle cx="10.5" cy="-3.8" r="0.5" fill="#0f172a"/></g></g></g>
    <g id="mdm_mouth_group"><path d="M6 -1.3 q1.5 1.4 3 0" stroke="#dc2626" stroke-width="0.6" fill="none" stroke-linecap="round"/></g>
    
<path id="mdm_left_arm" d="M2 3.5 Q-1.2 6.0 -1.2 8.6" stroke="#ffffff" stroke-width="2.1" fill="none" stroke-linecap="round"/>
    <circle id="mdm_left_hand" cx="-1.2" cy="8.6" r="0.85" fill="#ffffff" stroke="#0f172a" stroke-width="0.3"/>
<g class="present-arm" style="transform-origin:13px 3.5px"><path id="mdm_right_arm" d="M13 3.5 Q16.3 1.4 16.4 -0.6" stroke="#ffffff" stroke-width="2.1" fill="none" stroke-linecap="round"/>
    <circle id="mdm_right_hand" cx="16.4" cy="-0.6" r="0.85" fill="#ffffff" stroke="#0f172a" stroke-width="0.3"/></g>
<g transform="translate(7.5,-15.2)"><g class="bpop" style="transform-origin:2px 5.8px">
    <rect x="0" y="0" width="16" height="5.4" rx="1.5" fill="#ffffff" stroke="#0f172a" stroke-width="0.35"/>
    <path d="M2.4 5.3 L2.4 7 L4.4 5.3 Z" fill="#ffffff" stroke="#0f172a" stroke-width="0.35"/>
    <text x="1.2" y="3.5" font-size="1.7" fill="#0f172a" font-family="Arial, sans-serif" font-weight="bold"><tspan class="w1">I'm</tspan><tspan class="w2" dx="0.5">down,</tspan><tspan class="w3" dx="0.5">Manager!</tspan></text>
    <rect class="tcur" x="14.6" y="2.1" width="0.45" height="1.8" fill="#1d4ed8"/></g></g>
</svg>
