<svg xmlns="http://www.w3.org/2000/svg" viewBox="-15 -25 45 45">
  <defs><style>
    .breathe { animation: kf-breathe 3.6s infinite ease-in-out; }
    @keyframes kf-breathe { 0%,100% { transform: scale(1,1); } 50% { transform: scale(1.015,0.985); } }
    .blink { animation: kf-blink 4.2s infinite ease-in-out; }
    @keyframes kf-blink { 0%,92%,100% { transform: scaleY(1); } 96% { transform: scaleY(0.08); } }
    .badge-pulse { animation: kf-badge 2.6s infinite ease-in-out; }
    @keyframes kf-badge { 0%,100% { opacity: 1; } 50% { opacity: 0.8; } }

    .arm-tl { animation: kf-matl 0.16s infinite ease-in-out; }
    @keyframes kf-matl { 0%,100% { transform: rotate(-3deg); } 50% { transform: rotate(6deg); } }
    .arm-tr { animation: kf-matr 0.13s infinite ease-in-out; }
    @keyframes kf-matr { 0%,100% { transform: rotate(3deg); } 50% { transform: rotate(-6deg); } }
    .kf1 { animation: kf-mkey 0.6s infinite; }
    .kf2 { animation: kf-mkey 0.75s infinite; animation-delay: -0.3s; }
    @keyframes kf-mkey { 0%,70%,100% { opacity: 0; } 35% { opacity: 0.9; } }
    .type-bounce { animation: kf-mtb 0.35s infinite ease-in-out; }
    @keyframes kf-mtb { 0%,100% { transform: translateY(0); } 50% { transform: translateY(0.4px); } }
  </style></defs>
<g class="type-bounce" style="transform-origin:7.5px 8px">
  <ellipse id="mdm_shadow" cx="7.5" cy="15.3" rx="6.2" ry="1.3" fill="#0f172a" opacity="0.16"/>
  <g id="mdm_legs_group" fill="#0f172a"><rect x="3.4" y="10" width="2.6" height="4.2" rx="1"/><rect x="9" y="10" width="2.6" height="4.2" rx="1"/></g>
  <g id="body-js"><g class="breathe" style="transform-origin:7.5px 6px">
    <rect id="mdm_body" x="2" y="2" width="11" height="8.4" rx="1.6" fill="#ffffff" stroke="#0f172a" stroke-width="0.4"/>
    <path id="mdm_tie" d="M7 2.4 L8.3 2.4 L9 5 L7.5 9.6 L6 5 Z" fill="#1d4ed8"/>
    <rect x="10" y="3.4" width="2" height="2.4" rx="0.3" fill="#dfe9fb" stroke="#0f172a" stroke-width="0.25"/>
    <rect x="10.7" y="3" width="0.55" height="1.2" rx="0.2" fill="#dc2626"/></g>
  </g>
    <rect id="mdm_head_document" x="1" y="-9" width="13" height="11" rx="2.4" fill="#ffffff" stroke="#0f172a" stroke-width="0.4"/>
    <path id="mdm_corner_fold" d="M11.6 -9 L14 -9 L14 -6.6 Z" fill="#dfe9fb" stroke="#0f172a" stroke-width="0.3"/>
    <g class="badge-pulse">
      <rect id="mdm_badge" x="2.1" y="-8.1" width="3.6" height="3.6" rx="0.6" fill="#1d4ed8"/>
      <path d="M2.9 -5.3 V-7.4 L3.9 -6.1 L4.9 -7.4 V-5.3" stroke="#ffffff" stroke-width="0.5" fill="none" stroke-linecap="round" stroke-linejoin="round"/>
    </g>
    <g id="mdm_brows_group"><path d="M3.4 -6.9 q1.6 -0.4 3 0" stroke="#0f172a" stroke-width="0.6" fill="none" stroke-linecap="round"/>
         <path d="M8.6 -6.9 q1.6 -0.4 3 0" stroke="#0f172a" stroke-width="0.6" fill="none" stroke-linecap="round"/></g>
    <g id="eyes-js"><g class="blink" style="transform-origin:7.5px -3.5px"><g id="mdm_eyes_group">
    <ellipse cx="5" cy="-3.8" rx="1.1" ry="1.3" fill="#ffffff" stroke="#0f172a" stroke-width="0.35"/>
    <ellipse cx="10.5" cy="-3.8" rx="1.1" ry="1.3" fill="#ffffff" stroke="#0f172a" stroke-width="0.35"/><circle cx="5" cy="-3.1" r="0.5" fill="#0f172a"/><circle cx="10.5" cy="-3.1" r="0.5" fill="#0f172a"/></g></g></g>
    <g id="mdm_mouth_group"><path d="M6 -1.3 q1.5 1.4 3 0" stroke="#dc2626" stroke-width="0.6" fill="none" stroke-linecap="round"/></g>
    </g>
<g transform="translate(1.5,8.7)">
    <rect x="-0.3" y="0" width="13" height="2.6" rx="0.35" fill="#33405f" stroke="#0f172a" stroke-width="0.28"/>
    <g fill="#5a6a95">
      <rect x="0.4" y="0.35" width="1" height="0.7" rx="0.15"/><rect x="1.7" y="0.35" width="1" height="0.7" rx="0.15"/><rect x="3" y="0.35" width="1" height="0.7" rx="0.15"/><rect x="4.3" y="0.35" width="1" height="0.7" rx="0.15"/><rect x="5.6" y="0.35" width="1" height="0.7" rx="0.15"/><rect x="6.9" y="0.35" width="1" height="0.7" rx="0.15"/><rect x="8.2" y="0.35" width="1" height="0.7" rx="0.15"/><rect x="9.5" y="0.35" width="1" height="0.7" rx="0.15"/><rect x="10.8" y="0.35" width="1" height="0.7" rx="0.15"/>
      <rect x="2.5" y="1.4" width="7.6" height="0.6" rx="0.15"/>
    </g>
    <g fill="#b9c9ec">
      <rect class="kf1" x="3" y="0.35" width="1" height="0.7" rx="0.15"/>
      <rect class="kf2" x="8.2" y="0.35" width="1" height="0.7" rx="0.15"/>
    </g></g>
<g class="arm-tl" style="transform-origin:2px 3.5px"><path id="mdm_left_arm" d="M2 3.5 Q1.6 6.3 4.5 9.2" stroke="#ffffff" stroke-width="2.1" fill="none" stroke-linecap="round"/>
    <circle id="mdm_left_hand" cx="4.5" cy="9.2" r="0.75" fill="#ffffff" stroke="#0f172a" stroke-width="0.3"/></g>
<g class="arm-tr" style="transform-origin:13px 3.5px"><path id="mdm_right_arm" d="M13 3.5 Q13.3 6.3 10.5 9.2" stroke="#ffffff" stroke-width="2.1" fill="none" stroke-linecap="round"/>
    <circle id="mdm_right_hand" cx="10.5" cy="9.2" r="0.75" fill="#ffffff" stroke="#0f172a" stroke-width="0.3"/></g>
</svg>
