<svg xmlns="http://www.w3.org/2000/svg" viewBox="-15 -25 45 45">
  <defs><style>
    .breathe { animation: kf-breathe 3.6s infinite ease-in-out; }
    @keyframes kf-breathe { 0%,100% { transform: scale(1,1); } 50% { transform: scale(1.015,0.985); } }
    .blink { animation: kf-blink 4.2s infinite ease-in-out; }
    @keyframes kf-blink { 0%,92%,100% { transform: scaleY(1); } 96% { transform: scaleY(0.08); } }
    .badge-pulse { animation: kf-badge 2.6s infinite ease-in-out; }
    @keyframes kf-badge { 0%,100% { opacity: 1; } 50% { opacity: 0.8; } }

    .dangle { animation: kf-dangle 1.5s infinite ease-in-out; }
    @keyframes kf-dangle { 0%,100% { transform: rotate(-5deg); } 50% { transform: rotate(5deg); } }
    .leg-l { animation: kf-legl 0.7s infinite ease-in-out; }
    @keyframes kf-legl { 0%,100% { transform: rotate(-9deg); } 50% { transform: rotate(9deg); } }
    .leg-r { animation: kf-legl 0.7s infinite ease-in-out; animation-delay: -0.35s; }
    .whoosh { animation: kf-whoosh 0.9s infinite linear; }
    @keyframes kf-whoosh { 0% { transform: translateX(0); opacity: 0.55; } 100% { transform: translateX(-3px); opacity: 0; } }
  </style></defs>
<g class="dangle" style="transform-origin:7.5px -9px">
    <g id="body-js"><g class="" style="transform-origin:7.5px 6px"></g>
      <rect id="mdm_body" x="2" y="2" width="11" height="8.4" rx="1.6" fill="#ffffff" stroke="#0f172a" stroke-width="0.4"/>
      <path id="mdm_tie" d="M7 2.4 L8.3 2.4 L9 5 L7.5 9.6 L6 5 Z" fill="#1d4ed8"/>
    </g>
    <g class="leg-l" style="transform-origin:4.7px 10.2px"><rect x="3.4" y="10" width="2.6" height="4.2" rx="1" fill="#0f172a"/></g>
    <g class="leg-r" style="transform-origin:10.3px 10.2px"><rect x="9" y="10" width="2.6" height="4.2" rx="1" fill="#0f172a"/></g>
    <path id="mdm_left_arm" d="M2 3.5 Q-0.8 5.2 -1.6 6.8" stroke="#ffffff" stroke-width="2.1" fill="none" stroke-linecap="round"/>
    <circle id="mdm_left_hand" cx="-1.6" cy="6.8" r="0.85" fill="#ffffff" stroke="#0f172a" stroke-width="0.3"/>
    <path id="mdm_right_arm" d="M13 3.5 Q15.8 5.2 16.6 6.8" stroke="#ffffff" stroke-width="2.1" fill="none" stroke-linecap="round"/>
    <circle id="mdm_right_hand" cx="16.6" cy="6.8" r="0.85" fill="#ffffff" stroke="#0f172a" stroke-width="0.3"/>
    
    <rect id="mdm_head_document" x="1" y="-9" width="13" height="11" rx="2.4" fill="#ffffff" stroke="#0f172a" stroke-width="0.4"/>
    <path id="mdm_corner_fold" d="M11.6 -9 L14 -9 L14 -6.6 Z" fill="#dfe9fb" stroke="#0f172a" stroke-width="0.3"/>
    <g class="badge-pulse">
      <rect id="mdm_badge" x="2.1" y="-8.1" width="3.6" height="3.6" rx="0.6" fill="#1d4ed8"/>
      <path d="M2.9 -5.3 V-7.4 L3.9 -6.1 L4.9 -7.4 V-5.3" stroke="#ffffff" stroke-width="0.5" fill="none" stroke-linecap="round" stroke-linejoin="round"/>
    </g>
    <g id="mdm_brows_group"><path d="M3.4 -6.7 q1.6 -1 3 -0.2" stroke="#0f172a" stroke-width="0.6" fill="none" stroke-linecap="round"/>
         <path d="M8.6 -6.9 q1.6 0.8 3 -0.1" stroke="#0f172a" stroke-width="0.6" fill="none" stroke-linecap="round"/></g>
    <g id="eyes-js"><g class="blink" style="transform-origin:7.5px -3.5px"><g id="mdm_eyes_group">
    <ellipse cx="5" cy="-3.8" rx="1.1" ry="1.3" fill="#ffffff" stroke="#0f172a" stroke-width="0.35"/>
    <ellipse cx="10.5" cy="-3.8" rx="1.1" ry="1.3" fill="#ffffff" stroke="#0f172a" stroke-width="0.35"/><circle cx="5" cy="-3.3" r="0.5" fill="#0f172a"/><circle cx="10.5" cy="-3.3" r="0.5" fill="#0f172a"/></g></g></g>
    <g id="mdm_mouth_group"><path d="M6 -1 q1.5 -0.8 3 0" stroke="#dc2626" stroke-width="0.6" fill="none" stroke-linecap="round"/></g>
    </g>
<g class="whoosh">
    <path d="M-7 -2 h3.6 M-8 1.5 h3.6 M-7 5 h3.6" stroke="#0f172a" stroke-width="0.5" stroke-linecap="round" opacity="0.55"/>
  </g>
</svg>
